<?xml version="1.0" standalone="no"?>
<!DOCTYPE svg PUBLIC "-//W3C//DTD SVG 1.1//EN" "http://www.w3.org/Graphics/SVG/1.1/DTD/svg11.dtd" >
<svg xmlns="http://www.w3.org/2000/svg" xmlns:xlink="http://www.w3.org/1999/xlink" version="1.1">
<metadata>
Created by FontForge 20170731 at Tue Nov 13 18:33:52 2018
 By Aleksey,,,
Copyright JustAngelSQ 2017
"Sans" by "Ryan Brotherston" (https://fontstruct.com/fontstructors/show/225054/rilencavy)
</metadata>
<defs>
<font id="Comic-Sans-MS-pixel-rus-eng" horiz-adv-x="448" >
  <font-face 
    font-family="Comic Sans MS pixel rus eng"
    font-weight="400"
    font-stretch="normal"
    units-per-em="1024"
    panose-1="0 0 4 0 0 0 0 0 0 0"
    ascent="819"
    descent="-205"
    x-height="448"
    cap-height="640"
    bbox="0 -256 896 832"
    underline-thickness="51"
    underline-position="26"
    unicode-range="U+0020-0451"
  />
<missing-glyph horiz-adv-x="556" 
d="M423 50l-177 250l-177 -250h354zM50 69l176 251l-176 250v-501v0zM442 69v501l-177 -250l177 -251v0zM246 339l177 251h-354l177 -251v0zM0 0v640h492v-640h-492z" />
    <glyph glyph-name=".notdef" horiz-adv-x="556" 
d="M423 50l-177 250l-177 -250h354zM50 69l176 251l-176 250v-501v0zM442 69v501l-177 -250l177 -251v0zM246 339l177 251h-354l177 -251v0zM0 0v640h492v-640h-492z" />
    <glyph glyph-name="glyph1" horiz-adv-x="64" 
 />
    <glyph glyph-name="glyph2" horiz-adv-x="64" 
 />
    <glyph glyph-name="space" unicode=" " horiz-adv-x="192" 
 />
    <glyph glyph-name="exclam" unicode="!" horiz-adv-x="192" 
d="M0 0v128h128v-128h-128zM0 192v448h128v-448h-128z" />
    <glyph glyph-name="quotedbl" unicode="&#x22;" horiz-adv-x="384" 
d="M0 384v256h128v-256h-128zM192 384v256h128v-256h-128z" />
    <glyph glyph-name="numbersign" unicode="#" horiz-adv-x="640" 
d="M320 256v128h-64v-128h64zM64 0v128h-64v128h128v128h-64v128h128v128h128v-128h64v128h128v-128h64v-128h-128v-128h128v-128h-192v-128h-128v128h-64v-128h-128z" />
    <glyph glyph-name="dollar" unicode="$" horiz-adv-x="576" 
d="M384 128v128h-64v-128h64zM192 384v128h-64v-128h64zM192 -128v128h-192v128h192v128h-128v64h-64v192h64v64h64v64h64v128h128v-128h128v-128h-128v-128h128v-64h64v-256h-128v-64h-64v-128h-128z" />
    <glyph glyph-name="percent" unicode="%" horiz-adv-x="768" 
d="M576 128v64h-64v-64h64zM448 0v64h-64v192h64v64h192v-64h64v-192h-64v-64h-192zM192 448v64h-64v-64h64zM128 0v128h64v128h64v64h-192v64h-64v192h64v64h192v-64h64v-64h64v128h128v-128h-64v-128h-64v-128h-64v-128h-64v-128h-128z" />
    <glyph glyph-name="ampersand" unicode="&#x26;" horiz-adv-x="640" 
d="M320 128v64h-64v128h-64v-64h-64v-128h192zM320 448v64h-64v-64h64zM64 0v64h-64v256h64v64h64v192h64v64h192v-64h64v-128h-64v-64h-64v-64h64v-64h64v64h128v-128h-64v-128h64v-64h-128v64h-64v-64h-320z" />
    <glyph glyph-name="quotesingle" unicode="'" horiz-adv-x="192" 
d="M0 384v256h128v-256h-128z" />
    <glyph glyph-name="parenleft" unicode="(" horiz-adv-x="320" 
d="M128 -256v64h-64v128h-64v448h64v128h64v128h128v-128h-64v-128h-64v-448h64v-64h64v-128h-128z" />
    <glyph glyph-name="parenright" unicode=")" horiz-adv-x="320" 
d="M0 -256v128h64v64h64v448h-64v128h-64v128h128v-128h64v-128h64v-448h-64v-128h-64v-64h-128z" />
    <glyph glyph-name="asterisk" unicode="*" 
d="M0 320v64h64v128h-64v64h128v64h128v-64h128v-64h-64v-128h64v-64h-128v64h-128v-64h-128z" />
    <glyph glyph-name="plus" unicode="+" 
d="M128 64v128h-128v128h128v128h128v-128h128v-128h-128v-128h-128z" />
    <glyph glyph-name="comma" unicode="," horiz-adv-x="192" 
d="M0 -128v128h64v64h64v-128h-64v-64h-64z" />
    <glyph glyph-name="hyphen" unicode="-" 
d="M0 192v128h384v-128h-384z" />
    <glyph glyph-name="period" unicode="." horiz-adv-x="192" 
d="M0 0v128h128v-128h-128z" />
    <glyph glyph-name="slash" unicode="/" 
d="M0 -64v128h64v128h64v128h64v128h64v128h64v64h64v-128h-64v-192h-64v-64h-64v-128h-64v-192h-128z" />
    <glyph glyph-name="zero" unicode="0" 
d="M256 128v384h-128v-384h128zM64 0v128h-64v384h64v64h64v64h192v-128h64v-384h-64v-128h-256z" />
    <glyph glyph-name="one" unicode="1" 
d="M0 0v128h128v320h-128v128h128v64h128v-512h128v-128h-384z" />
    <glyph glyph-name="two" unicode="2" horiz-adv-x="512" 
d="M0 0v192h64v64h64v64h64v64h128v128h-192v-64h-128v128h128v64h256v-64h64v-192h-64v-64h-64v-64h-128v-64h-64v-64h320v-128h-448z" />
    <glyph glyph-name="three" unicode="3" 
d="M64 0v64h-64v128h128v-64h128v128h-192v128h192v128h-128v-64h-128v128h64v64h256v-64h64v-192h-64v-64h64v-256h-64v-64h-256z" />
    <glyph glyph-name="four" unicode="4" horiz-adv-x="512" 
d="M128 384v64h64v-64h-64zM256 0v192h-256v128h64v64h64v-64h128v128h-64v128h64v64h128v-320h64v-128h-64v-192h-128z" />
    <glyph glyph-name="five" unicode="5" 
d="M64 0v64h-64v128h64v-64h192v192h-256v320h384v-128h-256v-64h192v-64h64v-256h-64v-64h-64v-64h-192z" />
    <glyph glyph-name="six" unicode="6" 
d="M256 128v128h-128v-128h128zM64 0v64h-64v384h64v64h64v64h64v64h128v-128h-64v-64h-64v-64h128v-64h64v-256h-64v-64h-256z" />
    <glyph glyph-name="seven" unicode="7" horiz-adv-x="512" 
d="M64 0v128h64v128h64v128h64v64h64v-128h-64v-192h-64v-128h-128zM320 448v64h-320v128h448v-128h-64v-64h-64z" />
    <glyph glyph-name="eight" unicode="8" 
d="M256 128v128h-128v-128h128zM256 384v128h-128v-128h128zM64 0v64h-64v192h64v128h-64v192h64v64h256v-64h64v-192h-64v-128h64v-192h-64v-64h-256z" />
    <glyph glyph-name="nine" unicode="9" 
d="M256 320v192h-128v-192h128zM64 0v128h128v64h-128v64h-64v320h64v64h256v-64h64v-320h-64v-128h-64v-64h-64v-64h-128z" />
    <glyph glyph-name="colon" unicode=":" horiz-adv-x="192" 
d="M0 64v128h128v-128h-128zM0 320v128h128v-128h-128z" />
    <glyph glyph-name="semicolon" unicode=";" horiz-adv-x="256" 
d="M0 -64v128h64v64h128v-128h-64v-64h-128zM64 320v128h128v-128h-128z" />
    <glyph glyph-name="less" unicode="&#x3c;" horiz-adv-x="320" 
d="M128 64v64h-64v64h-64v64h64v64h64v64h64v64h64v-128h-64v-64h-64v-64h64v-64h64v-64h-128z" />
    <glyph glyph-name="equal" unicode="=" 
d="M0 64v128h384v-128h-384zM0 320v128h384v-128h-384z" />
    <glyph glyph-name="greater" unicode="&#x3e;" horiz-adv-x="320" 
d="M0 64v64h64v64h64v64h-64v64h-64v128h64v-64h64v-64h128v-128h-64v-64h-64v-64h-128z" />
    <glyph glyph-name="question" unicode="?" horiz-adv-x="512" 
d="M128 0v128h128v-128h-128zM128 192v128h128v64h64v64h-64v64h-128v-64h-128v128h64v64h256v-64h64v-64h64v-128h-64v-64h-64v-64h-64v-64h-128z" />
    <glyph glyph-name="at" unicode="@" horiz-adv-x="832" 
d="M192 -64v64h-64v64h-64v64h-64v320h64v64h64v64h64v64h384v-64h128v-64h64v-256h-64v-64h-448v64h-64v128h128v-64h64v64h-64v64h128v-64h64v-64h128v128h-64v64h-320v-64h-64v-64h-64v-192h64v-64h64v-64h192v64h128v-128h-64v-64h-320z" />
    <glyph glyph-name="A" unicode="A" horiz-adv-x="576" 
d="M320 320v64h-64v-64h64zM0 0v128h64v128h64v128h64v128h64v64h64v64h64v-192h64v-320h64v-128h-128v192h-192v-64h-64v-128h-128z" />
    <glyph glyph-name="B" unicode="B" horiz-adv-x="512" 
d="M256 128v64h64v64h-192v-128h128zM256 384v128h-128v-128h128zM0 0v640h256v-64h128v-192h-64v-64h64v-64h64v-128h-64v-64h-64v-64h-320z" />
    <glyph glyph-name="C" unicode="C" horiz-adv-x="576" 
d="M128 0v64h-64v64h-64v256h64v64h64v128h128v64h256v-192h-128v64h-128v-64h-64v-128h-64v-192h256v64h128v-128h-128v-64h-256z" />
    <glyph glyph-name="D" unicode="D" horiz-adv-x="512" 
d="M256 128v64h64v192h-64v64h-64v64h-64v-384h128zM64 0v64h-64v576h128v-64h128v-64h64v-64h64v-64h64v-192h-64v-128h-64v-64h-256z" />
    <glyph glyph-name="E" unicode="E" horiz-adv-x="512" 
d="M64 0v64h-64v576h448v-128h-320v-128h320v-128h-320v-128h320v-128h-384z" />
    <glyph glyph-name="F" unicode="F" 
d="M0 0v640h384v-128h-256v-128h256v-128h-256v-256h-128z" />
    <glyph glyph-name="G" unicode="G" horiz-adv-x="640" 
d="M64 0v64h-64v320h64v128h64v64h64v64h256v-64h64v-128h-128v64h-128v-64h-64v-64h-64v-256h256v64h-192v64h64v64h320v-192h-64v-64h-128v-64h-320z" />
    <glyph glyph-name="H" unicode="H" horiz-adv-x="576" 
d="M0 0v640h128v-256h256v256h128v-640h-128v256h-256v-256h-128z" />
    <glyph glyph-name="I" unicode="I" 
d="M0 0v128h128v384h-128v128h384v-128h-128v-384h128v-128h-384z" />
    <glyph glyph-name="J" unicode="J" horiz-adv-x="576" 
d="M128 -64v64h-64v64h-64v128h128v-128h128v448h-192v128h448v-128h-128v-512h-64v-64h-192z" />
    <glyph glyph-name="K" unicode="K" horiz-adv-x="512" 
d="M0 0v640h128v-192h64v64h64v64h64v64h128v-128h-64v-64h-64v-64h-64v-64h-64v-64h64v-64h128v-64h64v-128h-128v64h-64v64h-64v64h-64v-192h-128z" />
    <glyph glyph-name="L" unicode="L" 
d="M0 0v640h128v-512h256v-128h-384z" />
    <glyph glyph-name="M" unicode="M" horiz-adv-x="704" 
d="M0 0v192h64v256h64v192h128v-192h64v-192h64v192h64v192h128v-320h64v-320h-128v320h-64v-192h-64v-128h-128v192h-128v-192h-128z" />
    <glyph glyph-name="N" unicode="N" horiz-adv-x="640" 
d="M0 0v640h128v-128h64v-64h64v-128h-64v64h-64v-384h-128zM448 0v64h-64v64h-64v64h-64v128h64v-64h64v-64h64v448h128v-640h-128z" />
    <glyph glyph-name="O" unicode="O" horiz-adv-x="704" 
d="M384 128v64h64v64h64v192h-64v64h-192v-64h-64v-64h-64v-192h64v-64h192zM128 0v64h-64v64h-64v320h64v64h64v64h64v64h320v-64h64v-64h64v-320h-64v-64h-64v-64h-64v-64h-320z" />
    <glyph glyph-name="P" unicode="P" horiz-adv-x="384" 
d="M192 384v128h-64v-128h64zM0 0v640h256v-64h64v-256h-64v-64h-128v-256h-128z" />
    <glyph glyph-name="Q" unicode="Q" horiz-adv-x="768" 
d="M512 64v64h64v256h-64v128h-256v-64h-64v-64h-64v-192h64v-64h64v-64h64v128h128v-128h64zM576 -192v64h-64v64h-320v64h-64v64h-64v64h-64v320h64v64h64v64h128v64h256v-64h128v-128h64v-320h-64v-64h-64v-64h64v-64h64v-128h-128z" />
    <glyph glyph-name="R" unicode="R" 
d="M256 320v128h-64v64h-64v-192h128zM0 0v640h256v-64h64v-64h64v-192h-64v-64h-64v-64h64v-64h64v-128h-64v64h-64v64h-64v64h-64v-192h-128z" />
    <glyph glyph-name="S" unicode="S" horiz-adv-x="576" 
d="M64 0v64h-64v128h128v-64h192v64h64v64h-256v64h-64v192h64v64h64v64h192v-64h64v-64h-256v-128h256v-64h64v-192h-64v-64h-64v-64h-320z" />
    <glyph glyph-name="T" unicode="T" horiz-adv-x="576" 
d="M192 0v512h-192v128h512v-128h-192v-512h-128z" />
    <glyph glyph-name="U" unicode="U" horiz-adv-x="576" 
d="M128 0v64h-64v64h-64v512h128v-448h64v-64h128v128h64v384h128v-384h-64v-128h-64v-64h-64v-64h-192z" />
    <glyph glyph-name="V" unicode="V" horiz-adv-x="640" 
d="M192 0v128h-64v128h-64v192h-64v192h128v-128h64v-256h128v192h64v128h64v64h128v-128h-64v-128h-64v-128h-64v-192h-64v-64h-128z" />
    <glyph glyph-name="W" unicode="W" horiz-adv-x="896" 
d="M128 0v192h-64v256h-64v192h128v-192h64v-128h64v128h64v192h128v-256h64v-192h64v192h64v128h64v128h128v-128h-64v-128h-64v-128h-64v-192h-64v-64h-128v192h-64v128h-64v-192h-64v-128h-128z" />
    <glyph glyph-name="X" unicode="X" horiz-adv-x="640" 
d="M0 0v128h64v64h64v64h64v128h-64v64h-64v64h-64v128h128v-64h64v-64h64v-64h64v64h64v64h64v64h128v-128h-64v-64h-64v-64h-64v-128h64v-64h64v-64h64v-128h-128v64h-64v128h-128v-64h-64v-64h-64v-64h-128z" />
    <glyph glyph-name="Y" unicode="Y" horiz-adv-x="576" 
d="M128 0v128h64v192h-64v64h-64v128h-64v128h128v-64h64v-192h128v128h64v128h128v-128h-64v-128h-64v-192h-64v-128h-64v-64h-128z" />
    <glyph glyph-name="Z" unicode="Z" horiz-adv-x="576" 
d="M0 0v128h64v64h64v128h64v64h64v64h64v64h-320v128h512v-128h-128v-128h-64v-64h-64v-64h-64v-128h320v-128h-512z" />
    <glyph glyph-name="bracketleft" unicode="[" horiz-adv-x="320" 
d="M0 -256v896h256v-128h-128v-640h128v-128h-256z" />
    <glyph glyph-name="backslash" unicode="\" 
d="M256 -64v128h-64v192h-64v128h-64v128h-64v128h128v-128h64v-128h64v-192h64v-128h64v-128h-128z" />
    <glyph glyph-name="bracketright" unicode="]" horiz-adv-x="320" 
d="M0 -256v128h128v640h-128v128h256v-896h-256z" />
    <glyph glyph-name="asciicircum" unicode="^" 
d="M0 512v64h64v64h64v64h128v-64h64v-64h64v-64h-128v64h-128v-64h-128z" />
    <glyph glyph-name="underscore" unicode="_" horiz-adv-x="576" 
d="M0 -128v64h512v-64h-512z" />
    <glyph glyph-name="grave" unicode="`" horiz-adv-x="256" 
d="M64 512v128h-64v64h128v-64h64v-128h-128z" />
    <glyph glyph-name="a" unicode="a" 
d="M256 128v192h-64v-64h-64v-128h128zM64 0v64h-64v256h64v64h64v64h192v-64h64v-384h-320z" />
    <glyph glyph-name="b" unicode="b" 
d="M256 128v192h-128v-192h128zM0 0v640h128v-192h192v-64h64v-256h-64v-64h-64v-64h-256z" />
    <glyph glyph-name="c" unicode="c" 
d="M64 0v64h-64v256h64v64h64v64h192v-64h64v-128h-64v64h-128v-64h-64v-128h192v64h64v-128h-64v-64h-256z" />
    <glyph glyph-name="d" unicode="d" horiz-adv-x="512" 
d="M320 128v192h-192v-192h192zM128 0v64h-128v256h64v64h64v64h192v192h128v-640h-320z" />
    <glyph glyph-name="e" unicode="e" 
d="M192 192v64h64v64h-128v-128h64zM64 0v64h-64v256h64v64h64v64h192v-64h64v-192h-128v-64h128v-64h-64v-64h-256z" />
    <glyph glyph-name="f" unicode="f" 
d="M128 -64v384h-128v128h128v128h64v64h192v-128h-128v-64h128v-128h-128v-384h-128z" />
    <glyph glyph-name="g" unicode="g" 
d="M192 128v64h64v128h-128v-192h64zM0 -256v128h192v64h64v64h-192v64h-64v256h64v64h64v64h192v-64h64v-512h-64v-64h-64v-64h-256z" />
    <glyph glyph-name="h" unicode="h" 
d="M0 0v640h128v-192h192v-64h64v-384h-128v320h-64v-64h-64v-256h-128z" />
    <glyph glyph-name="i" unicode="i" horiz-adv-x="192" 
d="M0 0v448h128v-448h-128zM0 512v128h128v-128h-128z" />
    <glyph glyph-name="j" unicode="j" horiz-adv-x="384" 
d="M64 -256v128h-64v128h128v-128h64v576h128v-640h-64v-64h-192zM192 512v128h128v-128h-128z" />
    <glyph glyph-name="k" unicode="k" 
d="M0 0v640h128v-320h64v64h64v64h128v-128h-64v-64h-64v-64h64v-64h64v-128h-128v128h-64v64h-64v-192h-128z" />
    <glyph glyph-name="l" unicode="l" horiz-adv-x="192" 
d="M0 0v640h128v-640h-128z" />
    <glyph glyph-name="m" unicode="m" horiz-adv-x="576" 
d="M0 0v448h128v-64h64v64h320v-448h-128v320h-64v-320h-128v256h-64v-256h-128z" />
    <glyph glyph-name="n" unicode="n" 
d="M0 0v448h128v-64h64v64h128v-64h64v-384h-128v320h-64v-64h-64v-256h-128z" />
    <glyph glyph-name="o" unicode="o" 
d="M256 128v192h-128v-192h128zM64 0v64h-64v256h64v64h64v64h192v-64h64v-256h-64v-64h-64v-64h-192z" />
    <glyph glyph-name="p" unicode="p" 
d="M256 128v192h-128v-192h128zM0 -256v704h320v-64h64v-320h-64v-64h-192v-256h-128z" />
    <glyph glyph-name="q" unicode="q" 
d="M256 128v192h-64v-64h-64v-128h128zM256 -256v256h-192v64h-64v256h64v64h64v64h256v-704h-128z" />
    <glyph glyph-name="r" unicode="r" 
d="M0 0v448h384v-192h-128v64h-64v-64h-64v-256h-128z" />
    <glyph glyph-name="s" unicode="s" horiz-adv-x="384" 
d="M0 0v128h192v64h-128v64h-64v128h64v64h256v-128h-192v-64h128v-64h64v-128h-64v-64h-256z" />
    <glyph glyph-name="t" unicode="t" 
d="M128 0v320h-128v128h128v128h128v-128h128v-128h-128v-320h-128z" />
    <glyph glyph-name="u" unicode="u" 
d="M64 0v64h-64v384h128v-320h128v320h128v-448h-320z" />
    <glyph glyph-name="v" unicode="v" 
d="M128 0v128h-64v192h-64v128h128v-128h128v128h128v-128h-64v-192h-64v-128h-128z" />
    <glyph glyph-name="w" unicode="w" horiz-adv-x="576" 
d="M64 0v128h-64v320h128v-192h64v192h128v-256h64v256h128v-192h-64v-192h-64v-64h-64v64h-64v128h-64v-128h-64v-64h-64z" />
    <glyph glyph-name="x" unicode="x" horiz-adv-x="512" 
d="M0 0v128h64v64h64v64h-64v64h-64v128h128v-64h64v-64h64v64h64v64h128v-128h-64v-64h-64v-64h64v-64h64v-128h-128v64h-64v64h-64v-64h-64v-64h-128z" />
    <glyph glyph-name="y" unicode="y" horiz-adv-x="512" 
d="M64 -256v192h64v256h-64v128h-64v128h128v-128h64v-128h64v192h64v64h128v-128h-64v-128h-64v-192h-64v-128h-64v-128h-128z" />
    <glyph glyph-name="z" unicode="z" 
d="M0 0v128h64v64h64v64h64v64h-192v128h384v-128h-64v-64h-64v-64h-64v-64h192v-128h-384z" />
    <glyph glyph-name="braceleft" unicode="{" horiz-adv-x="384" 
d="M128 -256v64h-64v320h-64v128h64v320h64v64h192v-128h-128v-256h-64v-64h64v-320h128v-128h-192z" />
    <glyph glyph-name="bar" unicode="|" horiz-adv-x="192" 
d="M0 -256v896h128v-896h-128z" />
    <glyph glyph-name="braceright" unicode="}" horiz-adv-x="384" 
d="M0 -256v128h128v320h64v64h-64v256h-128v128h192v-64h64v-320h64v-64h-64v-384h-64v-64h-192z" />
    <glyph glyph-name="asciitilde" unicode="~" horiz-adv-x="512" 
d="M0 192v128h64v64h192v-128h-64v64h-64v-64h-64v-64h-64zM256 192v64h64v64h64v64h64v-128h-64v-64h-128z" />
    <glyph glyph-name="uni0401" unicode="&#x401;" horiz-adv-x="512" 
d="M64 0v64h-64v576h448v-128h-320v-128h320v-128h-320v-128h320v-128h-384zM64 704v128h128v-128h-128zM320 704v128h128v-128h-128z" />
    <glyph glyph-name="uni0410" unicode="&#x410;" horiz-adv-x="576" 
d="M320 320v64h-64v-64h64zM0 0v128h64v128h64v128h64v128h64v64h64v64h64v-192h64v-320h64v-128h-128v192h-192v-64h-64v-128h-128z" />
    <glyph glyph-name="uni0411" unicode="&#x411;" horiz-adv-x="512" 
d="M256 128v64h64v64h-192v-128h128zM0 0v640h448v-128h-320v-128h192v-64h64v-64h64v-128h-64v-64h-64v-64h-320z" />
    <glyph glyph-name="uni0412" unicode="&#x412;" horiz-adv-x="512" 
d="M256 128v64h64v64h-192v-128h128zM256 384v128h-128v-128h128zM0 0v640h256v-64h128v-192h-64v-64h64v-64h64v-128h-64v-64h-64v-64h-320z" />
    <glyph glyph-name="uni0413" unicode="&#x413;" horiz-adv-x="512" 
d="M0 0v640h448v-128h-320v-512h-128z" />
    <glyph glyph-name="uni0414" unicode="&#x414;" horiz-adv-x="704" 
d="M512 128v384h-256v-256h-64v-128h320zM0 -192v256h64v128h64v448h512v-832h-128v192h-384v-192h-128z" />
    <glyph glyph-name="uni0415" unicode="&#x415;" horiz-adv-x="512" 
d="M64 0v64h-64v576h448v-128h-320v-128h320v-128h-320v-128h320v-128h-384z" />
    <glyph glyph-name="uni0416" unicode="&#x416;" horiz-adv-x="704" 
d="M0 0v192h64v64h64v64h64v64h-64v64h-64v64h-64v128h128v-128h64v-64h64v192h128v-192h64v64h64v128h128v-128h-64v-64h-64v-64h-64v-64h64v-64h64v-64h64v-192h-128v128h-64v64h-64v-192h-128v192h-64v-64h-64v-128h-128z" />
    <glyph glyph-name="uni0417" unicode="&#x417;" 
d="M64 0v64h-64v128h64v-64h192v128h-192v128h192v128h-192v-64h-64v128h64v64h256v-64h64v-192h-64v-64h64v-256h-64v-64h-256z" />
    <glyph glyph-name="uni0418" unicode="&#x418;" horiz-adv-x="640" 
d="M0 0v640h128v-448h64v64h64v64h64v-128h-64v-64h-64v-64h-64v-64h-128zM448 0v384h-64v-64h-64v128h64v64h64v128h128v-640h-128z" />
    <glyph glyph-name="uni0419" unicode="&#x419;" horiz-adv-x="640" 
d="M0 0v640h128v-448h64v64h64v64h64v-128h-64v-64h-64v-64h-64v-64h-128zM448 0v384h-64v-64h-64v128h64v64h64v128h128v-640h-128zM128 704v64h256v-64h-256zM64 768v64h64v-64h-64zM384 768v64h64v-64h-64z" />
    <glyph glyph-name="uni041A" unicode="&#x41a;" horiz-adv-x="512" 
d="M0 0v640h128v-192h64v64h64v64h64v64h128v-128h-64v-64h-64v-64h-64v-64h-64v-64h64v-64h128v-64h64v-128h-128v64h-64v64h-64v64h-64v-192h-128z" />
    <glyph glyph-name="uni041B" unicode="&#x41b;" horiz-adv-x="576" 
d="M0 0v64h64v512h64v64h384v-640h-128v512h-192v-448h-64v-64h-128z" />
    <glyph glyph-name="uni041C" unicode="&#x41c;" horiz-adv-x="704" 
d="M0 0v192h64v256h64v192h128v-192h64v-192h64v192h64v192h128v-320h64v-320h-128v320h-64v-192h-64v-128h-128v192h-128v-192h-128z" />
    <glyph glyph-name="uni041D" unicode="&#x41d;" horiz-adv-x="576" 
d="M0 0v640h128v-256h256v256h128v-640h-128v256h-256v-256h-128z" />
    <glyph glyph-name="uni041E" unicode="&#x41e;" horiz-adv-x="704" 
d="M384 128v64h64v64h64v192h-64v64h-192v-64h-64v-64h-64v-192h64v-64h192zM128 0v64h-64v64h-64v320h64v64h64v64h64v64h320v-64h64v-64h64v-320h-64v-64h-64v-64h-64v-64h-320z" />
    <glyph glyph-name="uni041F" unicode="&#x41f;" horiz-adv-x="704" 
d="M64 0v512h-64v128h576v-64h64v-64h-128v-512h-128v512h-192v-512h-128z" />
    <glyph glyph-name="uni0420" unicode="&#x420;" horiz-adv-x="384" 
d="M192 384v128h-64v-128h64zM0 0v640h256v-64h64v-256h-64v-64h-128v-256h-128z" />
    <glyph glyph-name="uni0421" unicode="&#x421;" horiz-adv-x="576" 
d="M128 0v64h-64v64h-64v256h64v64h64v128h128v64h256v-192h-128v64h-128v-64h-64v-128h-64v-192h256v64h128v-128h-128v-64h-256z" />
    <glyph glyph-name="uni0422" unicode="&#x422;" horiz-adv-x="576" 
d="M192 0v512h-192v128h512v-128h-192v-512h-128z" />
    <glyph glyph-name="uni0423" unicode="&#x423;" horiz-adv-x="576" 
d="M64 0v128h128v192h-64v64h-64v128h-64v128h128v-64h64v-192h128v128h64v128h128v-128h-64v-128h-64v-192h-64v-128h-64v-64h-192z" />
    <glyph glyph-name="uni0424" unicode="&#x424;" horiz-adv-x="640" 
d="M256 192v192h-64v-64h-64v-128h128zM384 192v64h64v128h-128v-192h64zM64 -64v64h64v64h64v64h-128v64h-64v128h64v64h64v64h64v64h-128v128h384v-64h64v-64h-128v-64h128v-64h64v-128h-64v-64h-64v-64h-64v-64h128v-128h-448z" />
    <glyph glyph-name="uni0425" unicode="&#x425;" horiz-adv-x="640" 
d="M0 0v128h64v64h64v64h64v128h-64v64h-64v64h-64v128h128v-64h64v-64h64v-64h64v64h64v64h64v64h128v-128h-64v-64h-64v-64h-64v-128h64v-64h64v-64h64v-128h-128v64h-64v128h-128v-64h-64v-64h-64v-64h-128z" />
    <glyph glyph-name="uni0426" unicode="&#x426;" horiz-adv-x="640" 
d="M448 -128v128h-448v640h128v-512h256v512h128v-512h64v-256h-128z" />
    <glyph glyph-name="uni0427" unicode="&#x427;" 
d="M256 0v256h-128v64h-64v64h-64v256h128v-256h128v256h128v-640h-128z" />
    <glyph glyph-name="uni0428" unicode="&#x428;" horiz-adv-x="704" 
d="M0 0v640h128v-512h128v512h128v-512h128v512h128v-640h-640z" />
    <glyph glyph-name="uni0429" unicode="&#x429;" horiz-adv-x="768" 
d="M576 -128v128h-576v640h128v-512h128v512h128v-512h128v512h128v-512h64v-256h-128z" />
    <glyph glyph-name="uni042A" unicode="&#x42a;" horiz-adv-x="640" 
d="M384 128v64h64v64h-192v-128h128zM128 0v512h-128v128h256v-256h192v-64h64v-64h64v-128h-64v-64h-64v-64h-320z" />
    <glyph glyph-name="uni042B" unicode="&#x42b;" horiz-adv-x="640" 
d="M256 128v64h64v64h-192v-128h128zM0 0v640h128v-256h192v-64h64v-64h64v384h128v-640h-128v128h-64v-64h-64v-64h-320z" />
    <glyph glyph-name="uni042C" unicode="&#x42c;" horiz-adv-x="512" 
d="M256 128v64h64v64h-192v-128h128zM0 0v640h128v-256h192v-64h64v-64h64v-128h-64v-64h-64v-64h-320z" />
    <glyph glyph-name="uni042D" unicode="&#x42d;" horiz-adv-x="576" 
d="M128 0v64h-128v128h64v-64h320v128h-192v128h192v64h-64v64h-256v-64h-64v128h64v64h256v-64h128v-128h64v-320h-64v-64h-64v-64h-256z" />
    <glyph glyph-name="uni042E" unicode="&#x42e;" horiz-adv-x="960" 
d="M640 128v64h64v64h64v192h-64v64h-192v-64h-64v-64h-64v-192h64v-64h192zM0 0v640h128v-320h128v128h64v64h64v64h64v64h320v-64h64v-64h64v-320h-64v-64h-64v-64h-64v-64h-320v64h-64v64h-64v128h-128v-256h-128z" />
    <glyph glyph-name="uni042F" unicode="&#x42f;" 
d="M256 320v192h-64v-64h-64v-128h128zM0 0v128h64v64h64v64h-64v64h-64v192h64v64h64v64h256v-640h-128v192h-64v-64h-64v-64h-64v-64h-64z" />
    <glyph glyph-name="uni0430" unicode="&#x430;" 
d="M256 128v192h-64v-64h-64v-128h128zM64 0v64h-64v256h64v64h64v64h192v-64h64v-384h-320z" />
    <glyph glyph-name="uni0431" unicode="&#x431;" horiz-adv-x="512" 
d="M256 128v192h-64v-64h-64v-128h128zM64 0v64h-64v448h64v64h64v64h192v64h128v-192h-320v-64h-64v-64h64v64h192v-64h64v-320h-64v-64h-256z" />
    <glyph glyph-name="uni0432" unicode="&#x432;" 
d="M256 64v128h-128v-128h128zM256 256v64h-128v-64h128zM0 0v448h256v-64h128v-128h-64v-64h64v-128h-64v-64h-320z" />
    <glyph glyph-name="uni0433" unicode="&#x433;" horiz-adv-x="384" 
d="M0 0v448h320v-128h-192v-320h-128z" />
    <glyph glyph-name="uni0434" unicode="&#x434;" horiz-adv-x="576" 
d="M320 128v192h-128v-192h128zM0 -128v256h64v256h64v64h320v-320h64v-256h-128v128h-256v-128h-128z" />
    <glyph glyph-name="uni0435" unicode="&#x435;" 
d="M192 192v64h64v64h-128v-128h64zM64 0v64h-64v256h64v64h64v64h192v-64h64v-192h-128v-64h128v-64h-64v-64h-256z" />
    <glyph glyph-name="uni0436" unicode="&#x436;" horiz-adv-x="704" 
d="M0 0v128h64v64h64v128h-64v64h-64v64h128v-64h64v-64h64v128h128v-128h64v64h64v64h128v-64h-64v-64h-64v-128h64v-64h64v-128h-128v128h-64v64h-64v-192h-128v192h-64v-64h-64v-128h-128z" />
    <glyph glyph-name="uni0437" unicode="&#x437;" 
d="M64 0v64h-64v64h256v64h-128v64h128v64h-192v-64h-64v128h64v64h256v-64h64v-128h-64v-64h64v-128h-64v-64h-256z" />
    <glyph glyph-name="uni0438" unicode="&#x438;" horiz-adv-x="512" 
d="M0 0v448h128v-256h64v-128h-64v-64h-128zM320 0v256h-64v-64h-64v128h64v64h64v64h128v-448h-128z" />
    <glyph glyph-name="uni0439" unicode="&#x439;" horiz-adv-x="512" 
d="M0 0v448h128v-256h64v-128h-64v-64h-128zM320 0v256h-64v-64h-64v128h64v64h64v64h128v-448h-128zM128 448v64h192v-64h-192zM64 512v64h64v-64h-64zM320 512v64h64v-64h-64z" />
    <glyph glyph-name="uni043A" unicode="&#x43a;" 
d="M0 0v448h128v-128h64v64h64v64h128v-64h-64v-64h-64v-128h64v-64h64v-128h-128v128h-64v64h-64v-192h-128z" />
    <glyph glyph-name="uni043B" unicode="&#x43b;" 
d="M0 0v64h64v320h64v64h256v-448h-128v320h-64v-256h-64v-64h-128z" />
    <glyph glyph-name="uni043C" unicode="&#x43c;" horiz-adv-x="640" 
d="M0 0v256h64v192h128v-128h64v-128h64v128h64v128h128v-192h64v-256h-128v256h-64v-192h-64v-64h-64v64h-64v192h-64v-256h-128z" />
    <glyph glyph-name="uni043D" unicode="&#x43d;" 
d="M0 0v448h128v-192h128v192h128v-448h-128v128h-128v-128h-128z" />
    <glyph glyph-name="uni043E" unicode="&#x43e;" 
d="M256 128v192h-128v-192h128zM64 0v64h-64v256h64v64h64v64h192v-64h64v-256h-64v-64h-64v-64h-192z" />
    <glyph glyph-name="uni043F" unicode="&#x43f;" 
d="M0 0v448h384v-448h-128v320h-128v-320h-128z" />
    <glyph glyph-name="uni0440" unicode="&#x440;" 
d="M256 128v192h-128v-192h128zM0 -256v704h320v-64h64v-320h-64v-64h-192v-256h-128z" />
    <glyph glyph-name="uni0441" unicode="&#x441;" 
d="M64 0v64h-64v256h64v64h64v64h192v-64h64v-128h-64v64h-128v-64h-64v-128h192v64h64v-128h-64v-64h-256z" />
    <glyph glyph-name="uni0442" unicode="&#x442;" 
d="M128 0v320h-128v128h384v-128h-128v-320h-128z" />
    <glyph glyph-name="uni0443" unicode="&#x443;" horiz-adv-x="512" 
d="M64 -256v192h64v256h-64v128h-64v128h128v-128h64v-128h64v192h64v64h128v-128h-64v-128h-64v-192h-64v-128h-64v-128h-128z" />
    <glyph glyph-name="uni0444" unicode="&#x444;" horiz-adv-x="704" 
d="M256 128v192h-128v-192h128zM512 128v192h-128v-192h128zM256 -256v256h-64v64h-128v64h-64v192h64v64h64v64h128v64h128v-64h128v-64h128v-256h-64v-64h-128v-64h-64v-256h-128z" />
    <glyph glyph-name="uni0445" unicode="&#x445;" horiz-adv-x="512" 
d="M0 0v128h64v64h64v64h-64v64h-64v128h128v-64h64v-64h64v64h64v64h128v-128h-64v-64h-64v-64h64v-64h64v-128h-128v64h-64v64h-64v-64h-64v-64h-128z" />
    <glyph glyph-name="uni0446" unicode="&#x446;" horiz-adv-x="512" 
d="M384 -64v64h-384v448h128v-320h128v320h128v-320h64v-192h-64z" />
    <glyph glyph-name="uni0447" unicode="&#x447;" 
d="M256 0v128h-128v64h-64v64h-64v192h128v-192h128v192h128v-448h-128z" />
    <glyph glyph-name="uni0448" unicode="&#x448;" horiz-adv-x="576" 
d="M0 0v448h128v-320h64v320h128v-320h64v320h128v-448h-512z" />
    <glyph glyph-name="uni0449" unicode="&#x449;" horiz-adv-x="640" 
d="M512 -64v64h-512v448h128v-320h64v320h128v-320h64v320h128v-320h64v-192h-64z" />
    <glyph glyph-name="uni044A" unicode="&#x44a;" horiz-adv-x="576" 
d="M384 128v64h-128v-64h128zM128 0v320h-128v128h256v-128h192v-64h64v-192h-64v-64h-320z" />
    <glyph glyph-name="uni044B" unicode="&#x44b;" horiz-adv-x="576" 
d="M256 128v64h-128v-64h128zM0 0v448h128v-128h192v-64h64v192h128v-448h-128v64h-64v-64h-320z" />
    <glyph glyph-name="uni044C" unicode="&#x44c;" 
d="M256 128v64h-128v-64h128zM0 0v448h128v-128h192v-64h64v-192h-64v-64h-320z" />
    <glyph glyph-name="uni044D" unicode="&#x44d;" 
d="M64 0v64h-64v128h64v-64h192v64h-128v64h64v64h-128v-64h-64v128h64v64h192v-64h64v-64h64v-256h-64v-64h-256z" />
    <glyph glyph-name="uni044E" unicode="&#x44e;" horiz-adv-x="704" 
d="M448 128v64h64v128h-128v-64h-64v-128h128zM0 0v448h128v-192h64v64h64v64h64v64h256v-64h64v-256h-64v-64h-64v-64h-256v64h-64v64h-64v-128h-128z" />
    <glyph glyph-name="uni044F" unicode="&#x44f;" 
d="M256 256v64h-128v-64h128zM0 0v64h64v64h64v64h-64v192h64v64h256v-448h-128v128h-64v-64h-64v-64h-128z" />
    <glyph glyph-name="uni0451" unicode="&#x451;" 
d="M192 192v64h64v64h-128v-128h64zM64 0v64h-64v256h64v64h64v64h192v-64h64v-192h-128v-64h128v-64h-64v-64h-256zM64 512v128h128v-128h-128zM256 512v128h128v-128h-128z" />
  </font>
</defs>
</svg>
